<?xml version="1.0" encoding="UTF-8"?>
<svg width="304px" height="266px" viewBox="0 0 304 266" version="1.1" xmlns="http://www.w3.org/2000/svg" xmlns:xlink="http://www.w3.org/1999/xlink">
    <!-- Generator: Sketch 63.1 (92452) - https://sketch.com -->
    <title>Group</title>
    <desc>Created with Sketch.</desc>
    <g id="harbour" stroke="none" stroke-width="8" fill="none" fill-rule="evenodd">
        <g id="Group" transform="translate(2.000000, 2.000000)" stroke="#00AAAA" stroke-width="8">
            <line x1="131.5" y1="49.5504709" x2="111.5" y2="253.550471" id="Line" stroke-linecap="square"></line>
            <line x1="171.5" y1="49.5504709" x2="190.5" y2="252.550471" id="Line-2" stroke-linecap="square"></line>
            <path d="M116,217.050471 C128.816033,218.383804 140.754711,219.050471 151.816033,219.050471 C162.877355,219.050471 173.938678,218.383804 185,217.050471" id="Line-4" stroke-linecap="square"></path>
            <path d="M120,179.050471 C131.382273,180.383804 142.065253,181.050471 152.04894,181.050471 C162.032627,181.050471 172.016313,180.383804 182,179.050471" id="Line-4" stroke-linecap="square"></path>
            <path d="M123,143.050471 C132.877123,144.383804 142.502831,145.050471 151.877123,145.050471 C161.251416,145.050471 170.625708,144.383804 180,143.050471" id="Line-4" stroke-linecap="square"></path>
            <path d="M126,109.050471 C135.023367,110.383804 143.586712,111.050471 151.690034,111.050471 C159.793356,111.050471 167.896678,110.383804 176,109.050471" id="Line-4" stroke-linecap="square"></path>
            <path d="M130,77.0504709 C135.56381,78.3838042 142.897143,79.0504709 152,79.0504709 C165.654285,79.0504709 173,77.0504709 173,77.0504709" id="Line-4" stroke-linecap="square"></path>
            <path d="M132,47.0504709 C139.121485,47.7171376 145.828646,48.0504709 152.121485,48.0504709 C158.414323,48.0504709 164.707162,47.7171376 171,47.0504709" id="Line-4" stroke-linecap="square"></path>
            <path d="M132,17.0504709 C138.958459,17.7171376 145.500168,18.0504709 151.625126,18.0504709 C157.750084,18.0504709 163.875042,17.7171376 170,17.0504709" id="Line-4" stroke-linecap="square"></path>
            <path d="M126,37.0504709 C134.538934,37.7171376 142.940801,38.0504709 151.205601,38.0504709 C159.4704,38.0504709 167.7352,37.7171376 176,37.0504709" id="Line-4" stroke-linecap="square"></path>
            <line x1="126.5" y1="37.5504709" x2="131.5" y2="46.5504709" id="Line-5" stroke-linecap="square"></line>
            <line x1="170" y1="39.0504709" x2="175" y2="47.0504709" id="Line-5" stroke-linecap="square" transform="translate(172.500000, 43.050471) scale(-1, 1) translate(-172.500000, -43.050471) "></line>
            <line x1="131.5" y1="36.5504709" x2="131.5" y2="18.5504709" id="Line-6" stroke-linecap="square"></line>
            <line x1="170" y1="36.0504709" x2="170" y2="18.0504709" id="Line-6" stroke-linecap="square"></line>
            <line x1="131.5" y1="16.5504709" x2="151.5" y2="1.55047089" id="Line-7" stroke-linecap="square"></line>
            <line x1="152" y1="16.0504709" x2="170" y2="1.05047089" id="Line-7" stroke-linecap="square" transform="translate(161.000000, 8.550471) scale(-1, 1) translate(-161.000000, -8.550471) "></line>
            <path d="M48.405934,0.692488857 C18.6452364,28.1038045 0,67.3997236 0,111.050471 C0,193.893183 67.1572875,261.050471 150,261.050471 C232.842712,261.050471 300,193.893183 300,111.050471 C300,67.030788 281.038253,27.4398583 250.837077,0" id="Path"></path>
            <path d="M128,61.5504709 C121.981632,61.5504709 115.786563,55.3838042 109.414792,43.0504709 C101.93893,55.3838042 94.800666,61.5504709 88,61.5504709" id="Path" stroke-linecap="square"></path>
            <path d="M209.652867,61.5504709 C203.634499,61.5504709 197.43943,55.3838042 191.067659,43.0504709 C185.168207,52.7831165 179.478987,58.6755842 174,60.7278738" id="Path" stroke-linecap="square"></path>
            <line x1="88" y1="1.05047089" x2="88" y2="81.0504709" id="Line-11" stroke-linecap="square"></line>
            <line x1="211" y1="1.05047089" x2="211" y2="81.0504709" id="Line-11" stroke-linecap="square"></line>
            <line x1="49.5" y1="0.55047089" x2="87.5" y2="0.55047089" id="Line-14" stroke-linecap="square"></line>
            <path d="M1,121.050471 C13.0292707,107.84124 29.6959373,96.3391382 51,86.5441669 C58.6959373,83.0058049 71.0292707,81.1745729 88,81.0504709" id="Line-14" stroke-linecap="square"></path>
            <path d="M212,121.050471 C224.029271,107.84124 240.695937,96.3391382 262,86.5441669 C269.695937,83.0058049 282.029271,81.1745729 299,81.0504709" id="Line-14" stroke-linecap="square" transform="translate(255.500000, 101.050471) scale(-1, 1) translate(-255.500000, -101.050471) "></path>
            <line x1="212" y1="1.05047089" x2="250" y2="1.05047089" id="Line-14" stroke-linecap="square"></line>
            <line x1="44" y1="121.050471" x2="69" y2="121.050471" id="Line-16" stroke-linecap="square"></line>
            <line x1="70" y1="161.050471" x2="95" y2="161.050471" id="Line-16" stroke-linecap="square"></line>
            <line x1="45" y1="201.050471" x2="70" y2="201.050471" id="Line-16" stroke-linecap="square"></line>
            <line x1="230" y1="121.050471" x2="255" y2="121.050471" id="Line-16" stroke-linecap="square"></line>
            <line x1="205" y1="161.050471" x2="230" y2="161.050471" id="Line-16" stroke-linecap="square"></line>
            <line x1="230" y1="201.050471" x2="255" y2="201.050471" id="Line-16" stroke-linecap="square"></line>
        </g>
    </g>
</svg>